<?xml version="1.0" encoding="utf-8"?>
<!-- Generator: Adobe Illustrator 16.0.0, SVG Export Plug-In . SVG Version: 6.00 Build 0)  -->
<!DOCTYPE svg PUBLIC "-//W3C//DTD SVG 1.1//EN" "http://www.w3.org/Graphics/SVG/1.1/DTD/svg11.dtd">
<svg version="1.1" xmlns="http://www.w3.org/2000/svg" xmlns:xlink="http://www.w3.org/1999/xlink" x="0px" y="0px" width="50px"
	 height="50px" viewBox="0 0 50 50" style="enable-background:new 0 0 50 50;" xml:space="preserve">
<style type="text/css">
<![CDATA[
	.st0{fill:#7290D0;stroke:#7290D0;stroke-width:1.5911;stroke-miterlimit:10;}
	.st1{fill:#90D072;}
	.st2{fill:#FFFFFF;}
]]>
</style>
<g id="Layer_1">
	<g>
		<path class="st1" d="M0.9,45.1c0,2.2,1.8,4,4,4h40.1c2.2,0,4-1.8,4-4V4.9c0-2.2-1.8-4-4-4H4.9c-2.2,0-4,1.8-4,4V45.1z"/>
	</g>
</g>
<g id="Layer_2">
	<g>
		<path class="st2" d="M1.9,31.4c0,9.2,7.5,16.7,16.7,16.7h12.9c9.2,0,16.7-7.5,16.7-16.7V18.6c0-9.2-7.5-16.7-16.7-16.7H18.6
			C9.3,1.9,1.9,9.3,1.9,18.6V31.4z"/>
	</g>
</g>
<g id="Layer_3">
	<g>
		<path class="st0" d="M19.2,29.9c1.9-0.4,4.1-0.8,6.4-1c-0.7-1-1.5-2.1-2.4-3.2c-0.9-1.2-1.8-2.5-2.9-3.9c-1.3-1.7-1.9-3.1-1.9-4.5
			c0-1.5,0.8-2.7,2.3-3.7c3.2-2.1,7-3.1,11.3-3.1c1.6,0,2.9,0.2,3.9,0.5c0.8,0.3,1.5,0.8,2.1,1.5c0.5,0.8,0.8,1.7,0.8,2.6
			c0,0.3,0,0.6-0.1,0.9c-0.1,0.3-0.1,0.6-0.3,1c-0.1,0.2-0.2,0.4-0.3,0.5c-0.1,0.1-0.1,0.1-0.1,0c0-0.1,0-0.3,0-0.6
			c0.1-0.3,0.1-0.7,0.1-1c0-1.1-0.3-2-0.9-2.8c-0.6-0.7-1.3-1.2-2.2-1.4c-0.6-0.2-1.2-0.3-1.8-0.4c-0.7-0.1-1.3-0.1-2.1-0.1
			c-4,0-7.3,1-9.9,2.9c-1.3,0.9-2,2-2,3.3c0,1,0.5,2.4,1.6,3.9c0.6,0.8,1.4,1.8,2.4,3c1,1.3,2.1,2.7,3.4,4.5c0.4,0,0.8,0,1.3,0
			c0.5,0,1.2,0,1.8,0c0.2,0,0.4,0,0.4,0.1c0,0.1-0.4,0.2-1.2,0.2c-1.1,0-1.8,0.1-2,0.1c0.6,1,0.9,2.1,0.9,3.1c0,2.2-1.2,3.8-3.5,4.7
			c-1,0.4-2,0.7-3.1,0.9c-1.1,0.2-2.1,0.3-3.3,0.3c-1.7,0-3.1-0.2-4.3-0.7c-1.8-0.6-2.7-1.6-2.7-3c0-1.3,1-2.4,2.9-3.2
			C15.5,30.9,17.3,30.3,19.2,29.9z M23,29.8c-0.8,0.1-1.6,0.3-2.2,0.4c-2.6,0.5-4.7,1.2-6.4,2.1c-1.8,0.9-2.8,1.9-2.8,2.9
			c0,0.5,0.3,0.9,0.8,1.4c0.4,0.3,0.8,0.6,1.3,0.7c0.6,0.2,1.3,0.3,1.9,0.4c0.6,0.1,1.3,0.1,2,0.1c1.2,0,2.2-0.1,3.3-0.4
			s2.1-0.6,3-1.1c1.9-1,2.9-2.3,2.9-3.9c0-1.1-0.4-2.1-1.1-3C24.8,29.5,23.8,29.6,23,29.8z"/>
	</g>
</g>
</svg>
