<?xml version="1.0" encoding="utf-8"?>
<!-- Generator: Adobe Illustrator 16.0.0, SVG Export Plug-In . SVG Version: 6.00 Build 0)  -->
<!DOCTYPE svg PUBLIC "-//W3C//DTD SVG 1.1//EN" "http://www.w3.org/Graphics/SVG/1.1/DTD/svg11.dtd">
<svg version="1.1" id="Layer_1" xmlns="http://www.w3.org/2000/svg" xmlns:xlink="http://www.w3.org/1999/xlink" x="0px" y="0px"
	 width="549.2px" height="549.2px" viewBox="0 0 549.2 549.2" style="enable-background:new 0 0 549.2 549.2;" xml:space="preserve"
	>
<style type="text/css">
<![CDATA[
	.st0{fill:none;stroke:#F7F7F7;stroke-width:20;stroke-miterlimit:10;}
	.st1{fill:#6F62A6;}
	.st2{clip-path:url(#SVGID_2_);fill:#6F62A6;}
]]>
</style>
<g>
	<g>
		<defs>
			<rect id="SVGID_1_" x="75.8" y="125.1" width="395.8" height="299"/>
		</defs>
		<clipPath id="SVGID_2_">
			<use xlink:href="#SVGID_1_"  style="overflow:visible;"/>
		</clipPath>
		<path class="st2" d="M301.5,315.9c-2.8-2.8-6.7-4.4-10.7-4.4c-4,0-7.8,1.6-10.7,4.4l-19.9,19.9L163.5,239l19.9-19.9
			c5.9-5.9,5.9-15.4,0-21.3L125,139.4c-2.9-2.9-6.8-4.4-10.7-4.4c-3.9,0-7.7,1.5-10.7,4.4l-19.9,19.9
			C58.6,184.6,95.5,262.3,166.2,333c55.7,55.7,115.7,90.4,151,90.4c9.6,0,17.3-2.5,22.7-7.9l0,0l20-19.9c5.9-5.9,5.9-15.5,0-21.4
			L301.5,315.9z M301.5,315.9"/>
	</g>
	<path class="st1" d="M455.9,125.1H187.2c-8.7,0-15.7,7-15.7,15.7v7l30.9,30.9c7.9,7.9,12.3,18.5,12.3,29.7
		c0,11.2-4.4,21.8-12.3,29.7l-0.9,0.9l20.8,20.8l42.6-35.3l-67.6-56.1c-4.3-3.6-4.9-9.9-1.3-14.2c3.6-4.3,9.9-4.9,14.2-1.3
		l111.2,92.3l111.2-92.3c4.3-3.6,10.7-3,14.2,1.3c3.6,4.3,3,10.7-1.3,14.2l-67.6,56.1l67.4,56.2c4.3,3.6,4.9,9.9,1.3,14.2
		c-3.6,4.3-10,4.9-14.2,1.3l-70.3-58.6L328,266.1c-1.9,1.6-4.2,2.3-6.4,2.3c-2.3,0-4.6-0.8-6.5-2.3l-34.3-28.5l-44.1,36.6l23.5,23.5
		l0.9-0.9c3.6-3.6,7.9-6.4,12.4-8.5c5.4-2.4,11.2-3.8,17.3-3.8c6.1,0,11.9,1.4,17.3,3.8c4.6,2.1,8.8,4.9,12.4,8.5l24.5,24.5h110.8
		c8.7,0,15.7-7,15.7-15.7V140.8C471.5,132.1,464.5,125.1,455.9,125.1L455.9,125.1z M455.9,125.1"/>
</g>
<circle class="st0" cx="274.6" cy="274.6" r="261"/>
</svg>
